<svg width="20" height="20" viewBox="0 0 20 20" fill="none" xmlns="http://www.w3.org/2000/svg">
<path d="M14.2 8.8667L8.07504 2.7417L7.35004 2.0167C7.10838 1.77503 6.70838 1.77503 6.46671 2.0167C6.22504 2.25837 6.22504 2.65837 6.46671 2.90003L7.19171 3.62503L2.50004 8.3167C1.96671 8.85003 1.68338 9.3917 1.66671 9.93337C1.65004 10.5084 1.93338 11.0834 2.50004 11.6584L5.84171 15C6.95838 16.1084 8.07504 16.1084 9.18338 15L14.2 9.98337C14.3667 9.8167 14.4417 9.5917 14.425 9.37503C14.4167 9.1917 14.3334 9.00003 14.2 8.8667Z" fill="#FFDD90"/>
<path d="M13.3333 18.9583H2.5C2.15833 18.9583 1.875 18.6749 1.875 18.3333C1.875 17.9916 2.15833 17.7083 2.5 17.7083H13.3333C13.675 17.7083 13.9583 17.9916 13.9583 18.3333C13.9583 18.6749 13.675 18.9583 13.3333 18.9583Z" fill="#FFDD90"/>
<path d="M16.125 12.3166C15.9083 12.0833 15.5083 12.0833 15.2917 12.3166C15.0333 12.5999 13.75 14.0416 13.75 15.1416C13.75 16.2249 14.625 17.0999 15.7083 17.0999C16.7917 17.0999 17.6667 16.2249 17.6667 15.1416C17.6667 14.0499 16.3833 12.5999 16.125 12.3166Z" fill="#FFDD90"/>
</svg>
