<svg width="24" height="24" viewBox="0 0 24 24" fill="none" xmlns="http://www.w3.org/2000/svg">
<path d="M19.8793 24.0003C19.782 23.9767 19.6858 23.9511 19.5885 23.9286C19.1156 23.8136 18.6858 23.5647 18.3506 23.2118C16.0378 20.8909 13.723 18.575 11.4061 16.2643C10.9617 15.8199 10.9628 15.4165 11.4061 14.9701C11.5167 14.8605 11.6376 14.7653 11.7297 14.6793L3.9477 6.89725C3.87829 7.00604 3.79986 7.1088 3.71322 7.20444C3.31183 7.59661 2.81624 7.56282 2.48448 7.11535C1.72949 6.0996 0.978594 5.08043 0.231794 4.05784C-0.039552 3.68001 -0.00883356 3.2991 0.311662 2.96939C0.72875 2.54889 1.14789 2.13009 1.56907 1.713C1.88547 1.40582 2.27355 1.36588 2.62886 1.62597C3.6569 2.37686 4.68085 3.1322 5.7007 3.89196C6.14817 4.22577 6.17479 4.71624 5.78467 5.1207C5.68739 5.2231 5.57988 5.31525 5.50001 5.39615L13.2728 13.1689C13.3541 13.0515 13.4427 12.9394 13.538 12.8331C13.9711 12.3948 14.3797 12.3948 14.8138 12.8331C16.7491 14.7663 18.6833 16.7002 20.6166 18.6348C21.0425 19.0607 21.4797 19.4744 21.8883 19.9157C23.032 21.1445 22.6389 23.1238 21.1214 23.7822C20.8815 23.8702 20.6362 23.943 20.3872 24.0003H19.8793Z" fill="#1D1D1D"/>
<path d="M2.19851 24.0004C1.68039 23.898 1.19709 23.7249 0.798774 23.3533C0.342146 22.9228 0.0691143 22.3327 0.0365004 21.706C0.00388642 21.0793 0.214202 20.4641 0.623679 19.9886C0.685116 19.9179 0.750648 19.8503 0.817205 19.7838L7.85992 12.7411C7.90293 12.6981 7.949 12.6571 8.01351 12.5967C8.35346 12.9387 8.68727 13.2766 9.0221 13.6135C9.33645 13.9258 9.65797 14.2391 9.96516 14.5616C9.99229 14.5926 10.012 14.6294 10.0228 14.6691C10.0337 14.7089 10.0353 14.7505 10.0276 14.791C9.70712 15.5835 9.82283 16.3023 10.3696 16.9546C10.3857 16.9778 10.4001 17.0021 10.4126 17.0273C10.3553 17.0877 10.3 17.1502 10.2406 17.2085C8.35756 19.0926 6.46633 20.9685 4.59557 22.8638C4.058 23.4085 3.502 23.8826 2.71765 23.9994L2.19851 24.0004Z" fill="#1D1D1D"/>
<path d="M15.6413 11.8283C15.363 11.6663 15.0759 11.52 14.7812 11.3901C14.3418 11.2336 13.8598 11.2468 13.4296 11.4269C13.3903 11.4409 13.3484 11.4458 13.3069 11.4414C13.2654 11.437 13.2255 11.4233 13.19 11.4013C12.5255 10.7511 11.8681 10.0938 11.1943 9.42C11.2466 9.35959 11.2875 9.30634 11.3346 9.25924C11.82 8.77184 12.3033 8.28342 12.7948 7.80319C12.8452 7.76391 12.8813 7.70917 12.8975 7.64739C12.9138 7.58561 12.9094 7.5202 12.8849 7.46119C12.2347 5.29759 12.6453 3.35208 14.2068 1.71786C15.4499 0.426664 17.0114 -0.132411 18.8125 0.0263006C18.9292 0.0365401 19.046 0.0457556 19.1617 0.0611148C19.2638 0.0693136 19.361 0.108378 19.4403 0.173121C19.5197 0.237864 19.5775 0.325222 19.6061 0.423592C19.6376 0.517135 19.6407 0.617918 19.615 0.713226C19.5893 0.808533 19.536 0.894096 19.4617 0.959117C19.089 1.33695 18.7122 1.71172 18.3354 2.08546C17.9734 2.43468 17.7215 2.88205 17.6104 3.37256C17.4963 3.9046 17.5584 4.45933 17.7875 4.9529C18.0165 5.44648 18.4 5.85208 18.88 6.10838C19.36 6.36469 19.9104 6.45777 20.448 6.37357C20.9856 6.28936 21.4811 6.03243 21.8598 5.64163C22.2192 5.28325 22.5765 4.92487 22.9359 4.56342C23.1141 4.38013 23.3169 4.27773 23.5657 4.36579C23.8145 4.45385 23.8882 4.66786 23.92 4.91975C24.0767 6.15238 23.836 7.40288 23.2329 8.48923C22.2325 10.3457 19.9409 11.5785 17.8449 11.346C17.4126 11.2889 16.9842 11.2058 16.5619 11.0972C16.508 11.0772 16.4491 11.0749 16.3938 11.0908C16.3385 11.1066 16.2898 11.1397 16.2547 11.1853C16.0468 11.4136 15.8277 11.6358 15.6413 11.8283Z" fill="#1D1D1D"/>
</svg>
